<?xml version="1.0" encoding="UTF-8" standalone="no"?>
<svg
   version="1.1"
   viewBox="0 0 34.424099 35.36681"
   xml:space="preserve"
   id="svg48"
   sodipodi:docname="obi_wan.svg"
   width="34.424099"
   height="35.36681"
   inkscape:version="1.1.1 (c3084ef, 2021-09-22)"
   xmlns:inkscape="http://www.inkscape.org/namespaces/inkscape"
   xmlns:sodipodi="http://sodipodi.sourceforge.net/DTD/sodipodi-0.dtd"
   xmlns="http://www.w3.org/2000/svg"
   xmlns:svg="http://www.w3.org/2000/svg"><defs
     id="defs52" /><sodipodi:namedview
     id="namedview50"
     pagecolor="#ffffff"
     bordercolor="#666666"
     borderopacity="1.0"
     inkscape:pageshadow="2"
     inkscape:pageopacity="0.0"
     inkscape:pagecheckerboard="0"
     showgrid="false"
     inkscape:zoom="13.791667"
     inkscape:cx="16.858006"
     inkscape:cy="17.909366"
     inkscape:window-width="1512"
     inkscape:window-height="884"
     inkscape:window-x="0"
     inkscape:window-y="32"
     inkscape:window-maximized="1"
     inkscape:current-layer="svg48" /><g
     id="Icons"
     transform="translate(-6.7879531,-6.3165902)"><g
       id="g45"><path
         d="m 18.28255,39.38099 c -3.3936,-1.6967 -6.8105,1.6485 -6.8105,1.6485 -1.7352,0.9109 -4.3813,-1.952 -4.3813,-1.952 -1.1278,-1.4749 1.258,-6.5937 1.258,-6.5937 0.9818,-1.309 3.2189,-10.8707 4.2586,-15.4887 0.3688,-1.6379 1.146,-3.1529 2.2619,-4.4072 l 4.1872,-4.7068 c 1.3342,-2.2287 5.1264,-1.4224 5.1264,-1.4224 0,0 3.3394,-0.0889 4.1202,0.5184 0.7808,0.6073 6.1164,6.8972 6.6369,7.4178 0.5206,0.5205 0.8242,6.1164 1.2147,7.1575 0.3903,1.0411 2.7328,10.9314 3.8172,12.2762 1.0846,1.3447 1.6051,4.2945 0.9544,4.815 -0.6507,0.5205 -3.3401,2.9932 -3.3401,2.9932 0,0 -1.4749,0.4337 -2.733,-1.3448 -1.2579,-1.7785 -4.7282,-1.1279 -5.4657,-0.8242 -0.7374,0.30371 -4.7716,3.08 -11.1049,-0.0868 z"
         style="fill:#96592f"
         id="path9" /><path
         d="m 34.03135,37.21759 c -1.44,-1.27 -3.02,-1.67 -3.94,-1.51 -0.92,0.16 -2.21,0.01 -2.55,1 -0.35,0.99 -0.9,0.85 -0.9,0.85 0,0 -0.46,0.38 -0.51,-0.13 -0.05,-0.5 -1.03,-0.74 -2.25,0.43 -1.23,1.17 -1.41,0.18 -1.41,0.18 0,0 -1.46,-1.04 -1.72,-0.61 -0.25,0.44 -0.54,0.45 -0.96,-0.13 -0.42,-0.57 -1.5,-0.5 -1.5,-0.5 -0.61,-0.76 -5.08,1.12 -5.08,1.12 l -1.18,0.52 c -1.01,0.45 -0.91,-0.16 -0.8,-0.48 0.02,-0.05 0.04,-0.09 0.05,-0.12 0.01,-0.01 0.01,-0.03 0.02,-0.05 1.3,-3.02 4.65,-10.87 5.55,-13.74 1.13,-3.57 1.74,-6.91 6.73,-7.04 0,0 3.68,-0.09 5.98,4.77 0,0 5.77,14.97 6.64,16.18 0,10e-6 1.28,2.31 -2.17,-0.74 z"
         style="fill:#7c4723"
         id="path11" /><g
         id="g17"><path
           d="m 15.38625,27.84229 c 0,0 1.7707,-5.2507 2.6692,-7.3253 0.8985,-2.0747 2.757,-3.9361 5.9446,-3.5113 0,0 3.5357,-0.45 6.2054,5.9606 2.6697,6.4107 2.3344,6.4026 2.3344,6.4026 0,0 -11.436,8.1019 -17.1536,-1.5266 z"
           style="fill:#f9d9c0"
           id="path13" /><path
           d="m 15.38625,27.84229 2.6433,1.5266 -0.0604,0.5597 1.2958,0.6546 2.458,-1.3705 v 0.7426 l 1.8842,1.4257 2.297,-1.252 -0.2805,-0.8149 2.0376,1.1867 2.2906,-0.0913 -0.3607,-0.5477 2.6434,-1.7151 1.3601,3.8496 -1.3585,2.3139 -1.0019,-0.3564 c 0,0 -1.1351,1.8629 -2.244,2.7795 0,0 -0.1639,1.5755 -2.9274,2.6353 0,0 0.4692,-0.9707 0.2955,-1.3447 0,0 -2.0158,0.69 -2.5441,1.8879 0,0 -3.1867,-1.1081 -3.5875,-1.7184 l -0.2546,0.7388 c 0,0 -1.1459,-1.1384 -1.8293,-1.6564 -0.6834,-0.518 -1.8168,-2.4713 -1.8168,-2.4713 l -0.6278,0.0801 -0.2271,-1.6965 -1.5432,-1.6034 z"
           style="fill:#f4f4f4"
           id="path15" /></g><g
         id="g27"><g
           id="g21"><path
             d="m 23.29135,26.53759 -0.02,0.34 c -0.03,1.1 -1.02,2.33 -1.06,2.38 -0.08,0.09 -0.18,0.14 -0.29,0.14 -0.09,0 -0.17,-0.03 -0.24,-0.09 -0.16,-0.13 -0.18,-0.36 -0.05,-0.52 0.24,-0.3 0.87,-1.23 0.89,-1.93 l 0.02,-0.36 c 0.03,-0.76 0.09,-2.32 -0.31,-2.73 -0.49,-0.12 -3.14,-0.72 -5.33,-0.24 0.1,-0.28 0.2,-0.55 0.29,-0.81 2.47,-0.4 5.18,0.32 5.31,0.35 0.05,0.01 0.09,0.03 0.13,0.06 0.71,0.53 0.72,1.91 0.66,3.41 z"
             style="fill:#d6b6a1"
             id="path19" /></g><g
           id="g25"><path
             d="m 30.43135,23.9476 c -2.62,-0.47 -5.25,0.4 -5.28,0.41 -0.04,0.01 -0.08,0.02 -0.12,0.02 -0.16,0 -0.3,-0.1 -0.35,-0.26 -0.07,-0.2 0.04,-0.41 0.23,-0.47 0.11,-0.04 2.55,-0.84 5.19,-0.5 v 0.01 c 0.12,0.28 0.23,0.54 0.33,0.79 z"
             style="fill:#d6b6a1"
             id="path23" /></g></g><path
         d="m 32.33135,28.4476 -0.1,-0.3 c -0.31,-0.9 -0.9,-2.46 -2.03,-5.18 -2.67,-6.41 -6.2,-5.96 -6.2,-5.96 -3.19,-0.43 -5.05,1.43 -5.95,3.51 -0.89,2.07 -2.67,7.32 -2.67,7.32 l -1.45,3.75 0.59,0.61 0.86,-2.21 c 0,0 0.2,-0.57 0.48,-1.41 0.05,-0.12 0.09,-0.25 0.14,-0.38 0.6,-1.72 1.5,-4.25 2.05,-5.54 0.9,-2.07 2.76,-3.93 5.95,-3.51 0,0 3.53,-0.45 6.2,5.96 0.61,1.46 1.06,2.58 1.4,3.45 0.17,0.45 0.31,0.83 0.42,1.15 0.08,0.22 0.15,0.41 0.21,0.58 l 0.06,0.17 0.83,2.34 0.47,-0.8 z"
         style="opacity:0.1"
         id="path29" /><g
         id="g39"><g
           id="g33"><path
             d="m 26.17225,34.7631 c -0.0869,0 -0.1738,-0.0303 -0.2451,-0.0908 l -0.9023,-0.7783 h -3.3037 l -1.0489,0.6299 c -0.1757,0.1044 -0.4082,0.0498 -0.5146,-0.128 -0.1065,-0.1777 -0.0488,-0.4082 0.1279,-0.5146 l 1.1387,-0.6836 c 0.0586,-0.0352 0.125,-0.0537 0.1933,-0.0537 h 3.5469 c 0.0899,0 0.1768,0.0322 0.2451,0.0908 l 1.0079,0.8691 c 0.1562,0.1358 0.1738,0.3721 0.039,0.5293 -0.0742,0.086 -0.1787,0.1299 -0.2842,0.1299 z"
             style="fill:#d8d6d6"
             id="path31" /></g><g
           id="g37"><path
             d="m 24.33835,35.68399 h -2.1944 c -0.207,0 -0.375,-0.168 -0.375,-0.375 0,-0.207 0.168,-0.375 0.375,-0.375 h 2.1944 c 0.207,0 0.375,0.168 0.375,0.375 0,0.207 -0.168,0.375 -0.375,0.375 z"
             style="fill:#d8d6d6"
             id="path35" /></g></g><path
         d="m 8.34875,32.4838 c 0,0 3.565,-2.9742 4.6669,-8.9427 0,0 -1.9624,4.7738 -3.4604,5.7231 0,-10e-6 -0.915,3.04119 -1.2065,3.2196 z"
         style="fill:#7c4723"
         id="path41" /><path
         d="m 39.80005,33.56279 c 0,0 -2.3635,-1.6725 -3.7919,-5.529 0,0 1.785,2.5883 2.8412,3.0795 0,0 0.7789,2.1837 0.9507,2.4495 z"
         style="fill:#7c4723"
         id="path43" /></g></g></svg>
