<svg fill="none">
  <path d="M29.11 16.107c-3.107-.738-5.178-2.19-5.178-4.957 0-2.513 2.417-4.496 6.559-4.496 2.784 0 4.648.9 5.293 1.245.138.092.23.23.23.392v2.744c0 .415-.53.622-.806.3l-1.357-1.522c-.668-.738-1.565-1.245-2.532-1.384h-.023c-2.324-.345-3.912.692-3.912 2.421 0 1.13.736 1.591 1.657 1.89 1.749.577 3.613.692 5.178 1.707 1.265.807 2.117 2.12 2.117 3.665 0 2.513-1.726 4.38-5.868 4.38-4.166 0-5.638-.968-6.076-1.336a.47.47 0 01-.138-.346v-2.513c0-.415.53-.623.806-.3l.621.715c.76.876 1.75 1.498 2.877 1.729.069.023.115.023.184.023 2.324.346 4.142-.3 4.142-2.029 0-1.729-1.956-1.913-3.774-2.328zm52.445 6.063h3.038c.322 0 .53-.3.437-.6l-.299-.898a3.928 3.928 0 01-.184-1.176V.983c0-.3-.276-.53-.575-.438l-3.084.784a.468.468 0 00-.322.599l.345 1.037c.115.37.184.761.184 1.176v17.614c0 .208.184.415.46.415zM65.125 6.954H55.16c-.322 0-.53.3-.437.6l.3.899c.114.368.183.76.183 1.175v9.868c0 .392-.069.784-.184 1.176l-.3.899c-.091.3.116.6.438.6h3.567c.322 0 .53-.3.437-.6l-.299-.9a3.928 3.928 0 01-.184-1.175V8.683h1.726c.322 0 .644.092.944.254l2.554 1.867a.465.465 0 00.667-.254l1.013-2.997c.069-.3-.138-.6-.46-.6zM18.087 20.672l-.3.899c-.091.3.116.6.438.6h3.567c.322 0 .53-.3.437-.6l-.299-.9a3.928 3.928 0 01-.184-1.175V11.08c0-2.214-.944-4.358-3.797-4.358-2.693 0-4.557 1.868-6.559 3.136V7.092c0-.3-.276-.53-.575-.438l-3.084.784a.468.468 0 00-.322.6l.345 1.037c.115.369.184.76.184 1.176v9.29c0 .393-.069.785-.184 1.177l-.299.899c-.092.3.115.6.437.6h3.567c.322 0 .53-.3.438-.6l-.3-.9a3.932 3.932 0 01-.184-1.175V11.45l2.417-1.453c2.37-1.43 4.487 0 4.487 2.029V19.495c-.046.393-.092.785-.23 1.177zM41.928 9.029V7.415a.462.462 0 00-.46-.461H38.43c-.322 0-.53.3-.437.6l.299.899c.115.368.184.76.184 1.175v8.415c0 2.213.944 4.358 3.797 4.358 2.693 0 4.557-1.868 6.559-3.136v2.467c0 .254.207.461.46.461h3.038c.322 0 .414-.3.322-.6l-.3-.921c-.114-.37-.068-.761-.068-1.153V7.415a.462.462 0 00-.46-.461h-3.038c-.322 0-.53.3-.438.6l.3.899c.115.368.184.76.184 1.175v8.046l-2.417 1.453c-2.37 1.43-4.487 0-4.487-2.029V9.029zM5.408 21.548l-.3-.9a3.93 3.93 0 01-.184-1.175v-15.4c0-.393.069-.785.184-1.177l.3-.899a.455.455 0 00-.438-.6H1.288c-.322 0-.53.3-.437.6l.299.9c.115.368.184.76.184 1.175v15.4c0 .393-.07.784-.184 1.176l-.3.9c-.091.3.116.599.438.599H4.97c.322 0 .53-.3.437-.6zm89.08 0l-4.073-11.92a1.72 1.72 0 010-1.175l.3-.877a.455.455 0 00-.438-.599h-3.774c-.322 0-.53.323-.437.622l4.925 14.271c.069.185.23.3.437.3h2.922l-1.979 5.856c-.092.3.116.6.438.6H95.8c.323 0 .53-.3.438-.6l-.507-1.499a1.72 1.72 0 010-1.175l5.914-17.776a.454.454 0 00-.437-.599h-2.37a.467.467 0 00-.46.53l.16.969c.07.368.024.737-.091 1.106l-3.958 11.966zm-15.855-1.914c-1.335 1.476-3.245 2.79-5.753 2.813h-.138c-3.268 0-5.915-1.752-6.835-4.588l-.069-.208a9.388 9.388 0 01-.414-2.974c.046-4.657 2.531-7.954 7.134-7.954 4.58 0 7.318 2.951 6.811 8.23a.471.471 0 01-.46.416h-9.941c0 .876.138 1.614.368 2.26.874 2.19 2.531 2.996 4.648 2.835 1.266-.092 2.647-.922 3.636-1.821a.699.699 0 01.92-.023c.323.23.37.691.093 1.014zm-9.78-6.04h7.364c.345-1.73-.576-4.957-3.682-4.957-3.82 0-3.682 4.957-3.682 4.957z" fill="currentColor"></path>
</svg>
