<?xml version="1.0" encoding="UTF-8" standalone="no"?>
<!-- Created with Inkscape (http://www.inkscape.org/) -->
<svg id="svg3351" xmlns:rdf="http://www.w3.org/1999/02/22-rdf-syntax-ns#" xmlns="http://www.w3.org/2000/svg" xml:space="preserve" height="239.79" viewBox="0 0 473.3475 239.78993" width="473.35" version="1.1" xmlns:cc="http://creativecommons.org/ns#" xmlns:dc="http://purl.org/dc/elements/1.1/"><metadata id="metadata3357"><rdf:RDF><cc:Work rdf:about=""><dc:format>image/svg+xml</dc:format><dc:type rdf:resource="http://purl.org/dc/dcmitype/StillImage"/><dc:title/></cc:Work></rdf:RDF></metadata><g id="g3359" transform="matrix(1.25 0 0 -1.25 -145.83 643.64)" fill="#231f20"><path id="path3367" d="m211.47 329.37-20.382-3.467v7.266l16.96 2.882c0.142 0.025 0.259 0.149 0.259 0.287 0 0.064-0.03 0.125-0.07 0.153 0 0-1.858 1.55-2.595 2.309 0 0-1.44 1.54-1.44 3.833 0 2.295 1.476 4.215 2.493 5.115 1.018 0.91 2.792 1.84 4.056 2.052l29.531 5.017v-6.701l-9.168-1.557v-13.857l-7.548-1.28v13.887l-9.817-1.666c-0.082-0.037-0.136-0.136-0.136-0.22 0-0.06 0.03-0.111 0.075-0.135 0.378-0.324 2.19-1.858 2.647-2.317 0.506-0.511 1.703-1.614 1.703-4.148 0-2.533-1.407-4.299-1.829-4.784-0.42-0.477-1.964-2.205-4.739-2.669m36.476 14.757 1.816 6.016 1.813-5.403-3.629-0.613zm7.495 13.265-11.761-1.998s-6.419-21.607-6.419-21.642l7.858 1.331 0.962 3.133 7.224 1.234 0.972-2.81 7.74 1.313-6.576 19.439zm21.159-4.818-4.753-0.815-0.008 2.605 4.376 0.743c0.491 0.08 1.492 0.012 1.492-1.094s-1.107-1.439-1.107-1.439m6.109-3.834c-1.264-0.204-1.351 0.261-1.351 0.336 0 0.121 0.159 0.233 0.159 0.233 0.474 0.299 1.44 1.193 1.44 1.193 2.051 1.898 2.3 4.066 2.3 5.205 0 1.135-0.177 3.123-2.285 4.53-2.107 1.41-4.777 1.016-4.777 1.016l-14.834-2.517 0.002-20.556c0.011 0.004 8.393 1.424 8.393 1.424v5.884l4.459-3.574c1.529-1.238 4.052-0.858 4.052-0.858l12.697 2.159v7.27l-10.255-1.745zm13.373 15.556c0.004 0 8.611 1.462 8.611 1.462l1.725-5.298 1.607 5.865s8.787 1.491 8.791 1.491l1.8-5.287 1.727 5.882 8.05 1.369c0-0.017-6.457-21.651-6.457-21.651l-7.183-1.221-2.458 7.484-2.532-8.325-7.115-1.215-6.566 19.444zm40.17-5.17 1.816 6.015 1.811-5.394-3.627-0.621zm7.492 13.266-11.759-2s-6.418-21.607-6.418-21.642l7.857 1.331 0.958 3.133 7.218 1.234 0.982-2.81 7.737 1.315-6.575 19.439zm21.549-4.757-4.758-0.807v2.597l4.374 0.743c0.49 0.082 1.492 0.017 1.492-1.083 0-1.108-1.108-1.45-1.108-1.45m22.22 5.523 10.491 1.781v6.664l-13.491-2.291c-1.265-0.212-3.035-1.142-4.057-2.052-1.019-0.902-2.494-2.812-2.494-5.105 0-2.303 1.44-3.841 1.44-3.841 0.74-0.761 2.598-2.286 2.598-2.286 0.038-0.039 0.068-0.097 0.068-0.155 0-0.136-0.115-0.27-0.259-0.296l-10.398-1.765c-1.263-0.207-1.354 0.261-1.354 0.333 0 0.122 0.161 0.233 0.161 0.233 0.474 0.292 1.439 1.189 1.439 1.189 2.056 1.902 2.302 4.064 2.302 5.207 0 1.137-0.175 3.126-2.283 4.538-2.108 1.405-4.781 1.002-4.781 1.002l-14.833-2.516v-20.55l8.384 1.426v5.884l4.465-3.58c1.528-1.234 4.058-0.861 4.058-0.861l16.264 2.767c2.774 0.471 4.318 2.2 4.74 2.673 0.422 0.486 1.826 2.256 1.826 4.786 0 2.533-1.191 3.629-1.704 4.134-0.456 0.449-2.27 2.005-2.643 2.323-0.047 0.031-0.076 0.075-0.076 0.141 0 0.087 0.051 0.178 0.137 0.217"/><path id="path3371" d="m343.75 412.98v52.289l-26.306-4.514 0.001-75.877 55.517 9.238v23.887"/><path id="path3375" d="m221.48 444.96-44.828-7.843c-4.817-0.88-10.451-2.942-13.389-5.882-2.94-2.944-4.77-7.224-5.528-12.02-0.761-4.941 0.341-9.599 3.094-14.048 5.68-9.179 21.097-20.843 21.097-20.843l-36.811-6.173-0.059-22.735 52.439 8.977c3.026 0.555 5.487 1.66 7.633 2.712 7.278 3.572 11.509 17.706 4.944 26.55-7.303 9.839-21.104 23.015-21.104 23.015l32.512 5.385"/><path id="path3379" d="m281.15 402.19c-3.657-4.25-9.537-5.87-13.895-6.458-3.72-0.501-9.942-0.586-12.882 2.198-3.012 2.853-3.153 8.962-3.178 14.268-0.02 4.171 0.275 8.806 2.764 12.214 3.296 4.513 8.01 6.532 13.562 7.427 5.056 0.814 10.929 0.828 13.629-1.79 3.347-3.245 3.501-9.123 3.584-14.335 0.073-4.567-0.486-9.924-3.584-13.524m16.905 48.415c-9.437 5.009-24.343 3.905-35.28 1.471-10.74-2.39-22.163-7.119-29.736-16.448-7.29-8.981-9.737-21.309-9.737-31.071 0-10.058 4.367-20.453 12.07-25.155 8.69-5.303 20.286-7.455 39.512-2.45 7.123 1.854 16.2 5.011 23.121 11.072 8.853 7.755 14.758 19.53 14.758 31.544 0 11.237-1.522 24.039-14.708 31.037"/><path id="path3383" d="m433.57 427.66c-3.657-4.25-9.537-5.87-13.896-6.458-3.72-0.501-9.941-0.586-12.881 2.198-3.013 2.853-3.153 8.962-3.178 14.268-0.02 4.171 0.275 8.806 2.764 12.214 3.296 4.513 8.01 6.532 13.562 7.427 5.056 0.814 10.929 0.828 13.629-1.79 3.347-3.245 3.501-9.123 3.584-14.335 0.073-4.567-0.486-9.924-3.584-13.524m16.905 48.415c-9.437 5.009-24.343 3.905-35.28 1.471-10.74-2.39-22.163-7.119-29.736-16.448-7.291-8.982-9.737-21.309-9.737-31.071 0-10.058 4.367-20.453 12.07-25.155 8.69-5.304 20.286-7.455 39.512-2.45 7.123 1.854 16.2 5.011 23.12 11.072 8.854 7.755 14.758 19.53 14.758 31.544 0 11.237-1.521 24.039-14.707 31.037"/><path id="path3387" d="m448.84 371.76-0.646-1.712-0.661 1.489-0.563-0.097v-2.112l0.364 0.064v1.759l0.014 0.006 0.722-1.641 0.232 0.042 0.721 1.888h0.011v-1.761l0.363 0.06v2.109l-0.557-0.094zm-4.061-0.978 0.687 0.121v-1.831l0.364 0.064v1.825l0.695 0.119v0.281l-1.746-0.296"/><path id="path3391" d="m178.88 327.82c-0.052-0.009-0.065 0.024-0.052 0.082l1.203 3.472c0.013 0.057 0.039 0.126 0.08 0.134 0.038 0.012 0.051-0.053 0.064-0.107l1.179-3.08c0.013-0.035 0-0.078-0.067-0.093l-2.407-0.408zm2.657-0.211c0.066 0.007 0.105-0.009 0.131-0.069l1.046-2.639c0.066-0.147-0.026-0.285-0.118-0.327-0.131-0.034-0.183-0.073-0.183-0.153 0-0.09 0.156-0.062 0.393-0.032 1.046 0.146 2.002 0.31 2.472 0.392 0.486 0.081 0.603 0.127 0.603 0.236 0 0.091-0.066 0.094-0.171 0.076-0.158-0.027-0.352-0.048-0.55-0.039-0.274 0.019-0.653 0.14-1.152 1.248-0.835 1.88-2.932 6.944-3.243 7.616-0.131 0.287-0.211 0.386-0.329 0.37-0.129-0.025-0.207-0.18-0.366-0.591l-3.284-8.903c-0.262-0.708-0.511-1.203-1.111-1.387-0.105-0.03-0.289-0.074-0.407-0.095-0.104-0.021-0.157-0.051-0.157-0.132 0-0.109 0.08-0.119 0.249-0.09 0.68 0.118 1.4 0.281 1.545 0.301 0.405 0.069 0.968 0.123 1.386 0.196 0.144 0.028 0.223 0.066 0.223 0.174 0 0.079-0.039 0.098-0.197 0.071l-0.196-0.037c-0.406-0.062-0.524 0.086-0.524 0.327 0 0.159 0.067 0.49 0.197 0.845l0.705 2.016c0.028 0.085 0.054 0.118 0.118 0.128"/><path id="path3395" d="m401.98 361.48c0.696 0.119 1.433 0.366 2.09 0.89 0.947 0.763 1.239 1.698 1.239 2.445 0 1.215-0.568 2.005-2.159 2.902l-0.369 0.2c-1.092 0.626-1.393 1.023-1.393 1.609 0 0.775 0.592 1.423 1.564 1.593 0.856 0.145 1.238-0.171 1.434-0.383 0.277-0.286 0.343-0.67 0.343-0.785 0-0.155 0.039-0.229 0.13-0.21 0.106 0.017 0.145 0.128 0.145 0.408 0 1.002 0.054 1.383 0.054 1.549 0 0.093-0.067 0.119-0.184 0.123-0.343 0.033-0.896 0.062-1.751-0.083-1.829-0.311-3.036-1.536-3.036-2.947 0-1.039 0.499-1.853 1.945-2.707l0.606-0.357c1.091-0.648 1.288-1.201 1.288-1.831 0-0.68-0.578-1.562-1.761-1.771-0.817-0.137-1.593 0.081-1.882 0.979-0.064 0.208-0.118 0.465-0.118 0.631 0 0.104-0.015 0.215-0.132 0.199-0.106-0.019-0.144-0.167-0.158-0.361-0.014-0.209-0.066-0.986-0.066-1.695 0-0.282 0.038-0.34 0.251-0.39 0.564-0.148 1.157-0.136 1.92-0.008"/><path id="path3399" d="m410.18 366.79c0-1.183 0-2.195-0.067-2.746-0.039-0.381-0.116-0.676-0.381-0.772-0.119-0.045-0.276-0.101-0.474-0.131-0.158-0.028-0.211-0.077-0.211-0.139 0-0.087 0.092-0.113 0.263-0.085 0.526 0.092 1.354 0.273 1.657 0.324 0.37 0.063 1.199 0.167 2.067 0.318 0.143 0.023 0.25 0.081 0.25 0.169 0 0.066-0.067 0.089-0.212 0.069-0.197-0.037-0.488-0.062-0.671-0.066-0.393-0.013-0.474 0.253-0.513 0.605-0.064 0.538-0.064 1.556-0.064 2.734v5.265l1.656 0.241c1.169 0.18 1.525-0.121 1.553-0.449l0.012-0.144c0.013-0.187 0.041-0.244 0.145-0.226 0.079 0.015 0.105 0.096 0.118 0.222 0 0.337 0.04 1.225 0.04 1.498 0 0.194-0.013 0.266-0.105 0.252-0.053-0.009-0.157-0.056-0.354-0.125-0.199-0.059-0.489-0.149-0.909-0.222l-5.208-0.895c-0.436-0.073-0.934-0.132-1.316-0.163-0.328-0.026-0.46 0.082-0.565 0.064-0.08-0.019-0.118-0.101-0.158-0.277-0.027-0.103-0.276-1.317-0.276-1.523 0-0.136 0.024-0.198 0.118-0.179 0.078 0.011 0.118 0.065 0.144 0.176 0.027 0.103 0.092 0.274 0.224 0.484 0.198 0.321 0.513 0.436 1.276 0.59l1.961 0.392"/><path id="path3403" d="m422.02 365.56c-2.526-0.43-4.037 1.427-4.037 4.097 0 3.191 1.723 4.309 3.234 4.572 2.156 0.372 3.855-1.12 3.855-3.997 0-3.71-2.131-4.509-3.052-4.672m-0.553-0.737c3.34 0.572 5.445 3.26 5.445 6.196 0 2.941-2.038 4.452-5.312 3.892-3.947-0.679-5.433-3.771-5.433-5.962 0-2.274 1.525-4.772 5.3-4.126"/><path id="path3407" d="m431.21 375.54c0 0.1 0.026 0.159 0.12 0.2 0.129 0.061 0.367 0.113 0.695 0.169 0.777 0.132 2.013-0.182 2.013-2.003 0-1.05-0.381-1.705-0.776-2.056-0.236-0.207-0.408-0.291-0.933-0.376-0.329-0.059-0.725-0.091-0.999-0.048-0.094 0.025-0.12 0.07-0.12 0.207v3.907zm-1.55-5.409c0-1.184 0-2.197-0.068-2.747-0.052-0.38-0.118-0.677-0.38-0.772-0.12-0.046-0.276-0.101-0.475-0.135-0.157-0.026-0.208-0.074-0.208-0.134 0-0.095 0.09-0.113 0.262-0.088 0.525 0.093 1.354 0.274 1.603 0.315 0.198 0.033 1.172 0.162 1.935 0.292 0.171 0.033 0.261 0.083 0.261 0.178 0 0.06-0.053 0.089-0.157 0.072-0.158-0.028-0.448-0.05-0.644-0.061-0.394-0.013-0.474 0.255-0.513 0.622-0.066 0.526-0.066 1.539-0.066 2.733v0.178c0 0.078 0.039 0.108 0.105 0.123l1.145 0.17c0.092 0.015 0.171 0.017 0.238-0.045 0.169-0.169 0.775-0.935 1.3-1.553 0.738-0.862 1.237-1.375 1.801-1.578 0.344-0.118 0.672-0.129 1.408-0.001l1.251 0.216c0.156 0.028 0.249 0.069 0.249 0.17 0 0.065-0.053 0.093-0.158 0.075-0.105-0.017-0.222-0.024-0.367-0.025-0.198 0.007-0.738 0.002-1.473 0.623-0.778 0.663-1.684 1.646-2.856 2.882 1.331 1.279 1.738 2.222 1.738 3.173 0 0.859-0.527 1.423-0.895 1.603-0.711 0.356-1.591 0.284-2.421 0.139-0.406-0.072-1.406-0.279-1.854-0.358-0.276-0.046-1.105-0.149-1.802-0.268-0.198-0.037-0.288-0.08-0.288-0.167 0-0.091 0.078-0.102 0.224-0.075 0.182 0.026 0.405 0.053 0.512 0.049 0.434-0.015 0.539-0.209 0.565-0.634 0.028-0.405 0.028-0.771 0.028-2.716"/><path id="path3411" d="m440.8 370.59c0-0.206 0-0.746-0.04-1.288-0.025-0.379-0.145-0.679-0.408-0.774-0.118-0.053-0.275-0.102-0.459-0.135-0.146-0.022-0.212-0.07-0.212-0.136 0-0.104 0.107-0.116 0.29-0.083 0.488 0.088 1.316 0.264 1.644 0.324 0.355 0.06 1.184 0.165 2.013 0.305 0.17 0.027 0.277 0.084 0.277 0.178 0 0.06-0.066 0.091-0.211 0.062-0.183-0.032-0.474-0.053-0.658-0.059-0.396-0.013-0.514 0.245-0.541 0.612-0.038 0.536-0.038 1.072-0.038 1.279v1.049c0 0.427 0 0.825 0.199 1.323 0.235 0.586 2.076 3.918 2.512 4.512 0.288 0.394 0.433 0.571 0.71 0.748 0.197 0.136 0.446 0.227 0.577 0.251 0.146 0.028 0.252 0.079 0.252 0.174 0 0.077-0.095 0.087-0.238 0.062-0.25-0.045-1.119-0.23-1.408-0.282-0.38-0.064-0.803-0.098-1.236-0.172-0.157-0.026-0.224-0.063-0.224-0.152 0-0.083 0.119-0.087 0.238-0.091 0.222-0.013 0.275-0.148 0.275-0.275 0-0.166-0.053-0.391-0.183-0.697-0.185-0.431-1.843-3.541-1.973-3.868-0.211 0.325-2.053 3.098-2.236 3.453-0.093 0.165-0.159 0.306-0.159 0.41s0.066 0.218 0.184 0.263c0.198 0.083 0.291 0.111 0.291 0.19 0 0.077-0.067 0.102-0.198 0.084-0.593-0.1-1.132-0.238-1.408-0.281-0.434-0.075-1.42-0.204-1.657-0.245-0.159-0.028-0.249-0.082-0.249-0.158 0-0.095 0.09-0.102 0.196-0.085 0.158 0.028 0.381-0.006 0.555-0.069 0.249-0.096 0.578-0.363 0.906-0.786 0.459-0.583 2.222-3.107 2.314-3.298 0.171-0.339 0.303-0.598 0.303-1.295"/><path id="path3415" d="m126.51 329.24c-2.694 0-5.193 1.03-7.038 2.902-0.061 0.06-0.111 0.115-0.161 0.171-1.712 1.827-2.654 4.248-2.654 6.815v104.67c0 5.296 3.959 9.953 9.208 10.831l357.9 60.141c0.568 0.095 1.144 0.144 1.714 0.144 5.524 0 9.852-4.344 9.852-9.889v-104.67c0-5.297-3.958-9.954-9.208-10.832l-82.384-13.862v6.665l76.013 12.791v0.004l2.864 0.477c5.237 1.19 5.906 3.865 6.111 9.267l0.029 0.274 0.002 93.411h-0.015c-0.077 5.405-1.304 8.999-6.987 8.999-0.652 0-1.374-0.048-2.145-0.144l-346.22-58.178v-0.015l-1.295-0.217c-6.712-1.128-8.618-3.037-8.866-8.883v-97.179c0.076-1.769 0.363-3.763 1.922-5.15 1.007-0.896 2.34-1.314 4.195-1.314 0.737 0 1.554 0.063 2.572 0.199l65.727 11.025c-1.394-1.313-2.189-3.14-2.189-5.044 0-0.646 0.093-1.294 0.278-1.927l-67.514-11.34c-0.566-0.095-1.142-0.143-1.711-0.143"/></g></svg>
